<?xml version="1.0" encoding="utf-8"?>
<!-- Generator: Adobe Illustrator 24.0.2, SVG Export Plug-In . SVG Version: 6.00 Build 0)  -->
<svg version="1.1" xmlns="http://www.w3.org/2000/svg" xmlns:xlink="http://www.w3.org/1999/xlink" x="0px" y="0px"
	 viewBox="0 0 50 50" style="enable-background:new 0 0 50 50;" xml:space="preserve">
<style type="text/css">
	.st0{fill:#225623;stroke:#225623;stroke-miterlimit:10;}
</style>
<g id="Слой_1">
	<rect x="24.3" y="11.19" class="st0" width="25.7" height="3.74"/>
	<rect x="24.3" y="34.74" class="st0" width="25.7" height="3.74"/>
	<path class="st0" d="M5.67,26.19L25.23,6.63c0.73-0.73,0.73-1.92,0-2.65l0,0c-0.73-0.73-1.92-0.73-2.65,0L3.02,23.55
		c-0.73,0.73-0.73,1.92,0,2.65l0,0C3.75,26.92,4.94,26.92,5.67,26.19z"/>
	<path class="st0" d="M3.02,26.19l19.57,19.57c0.73,0.73,1.92,0.73,2.65,0h0c0.73-0.73,0.73-1.92,0-2.65L5.67,23.54
		c-0.73-0.73-1.92-0.73-2.65,0l0,0C2.29,24.28,2.29,25.46,3.02,26.19z"/>
	<path class="st0" d="M24.05,14.94L24.05,14.94c-0.93,0-1.69-0.76-1.69-1.69v-8c0-0.93,0.76-1.69,1.69-1.69h0
		c0.93,0,1.69,0.76,1.69,1.69v8C25.74,14.18,24.99,14.94,24.05,14.94z"/>
	<path class="st0" d="M24.08,46.13L24.08,46.13c-0.93,0-1.69-0.76-1.69-1.69v-8c0-0.93,0.76-1.69,1.69-1.69h0
		c0.93,0,1.69,0.76,1.69,1.69v8C25.77,45.37,25.01,46.13,24.08,46.13z"/>
	<polygon class="st0" points="22.39,7.96 5.15,25 22.39,42.34 24.05,36.61 52.89,37.15 51.45,12.38 23.62,14 	"/>
</g>
<g id="Слой_2">
</g>
</svg>
